<?xml version="1.0" encoding="UTF-8" standalone="no"?>
<!-- Created with Inkscape (http://www.inkscape.org/) -->

<svg
   width="108"
   height="108"
   viewBox="0 0 108 108"
   version="1.1"
   id="svg5"
   xml:space="preserve"
   sodipodi:docname="com.tercad.fingrom.svg"
   inkscape:export-filename="ic_launcher.png"
   inkscape:export-xdpi="16"
   inkscape:export-ydpi="16"
   inkscape:version="1.4.2 (f4327f4, 2025-05-13)"
   xmlns:inkscape="http://www.inkscape.org/namespaces/inkscape"
   xmlns:sodipodi="http://sodipodi.sourceforge.net/DTD/sodipodi-0.dtd"
   xmlns="http://www.w3.org/2000/svg"
   xmlns:svg="http://www.w3.org/2000/svg">
  <defs
   id="defs10" /><sodipodi:namedview
   id="namedview8"
   pagecolor="#ffffff"
   bordercolor="#000000"
   borderopacity="0.25"
   inkscape:showpageshadow="2"
   inkscape:pageopacity="0.0"
   inkscape:pagecheckerboard="0"
   inkscape:deskcolor="#d1d1d1"
   showgrid="false"
   inkscape:zoom="2.1796875"
   inkscape:cx="-28.673835"
   inkscape:cy="-42.437276"
   inkscape:window-width="1920"
   inkscape:window-height="1009"
   inkscape:window-x="1912"
   inkscape:window-y="-8"
   inkscape:window-maximized="1"
   inkscape:current-layer="svg5"
   showguides="true"
   inkscape:pageshadow="0"><sodipodi:guide
     position="56.122482,60.474314"
     orientation="1,0"
     id="guide9043"
     inkscape:locked="false" /><sodipodi:guide
     position="66.827927,53.012944"
     orientation="0,-1"
     id="guide9045"
     inkscape:locked="false" /></sodipodi:namedview>
    <path
   id="path460"
   style="fill:#912391;fill-opacity:1;stroke-width:0.269255"
   d="m 82.054999,58.957123 c -3.759356,0.215562 -4.904327,0.852463 -8.8076,2.212101 4.697885,2.40162 9.479089,6.370327 12.12351,8.777341 -5.712508,-0.109493 -13.012167,0.652704 -21.916182,3.471997 -9.352893,2.961412 -20.484131,9.000203 -22.206106,10.174334 24.794205,-11.035936 33.897387,-8.983737 49.123081,-7.069139 3.669201,0.495925 6.030667,-1.745949 5.390511,-3.676013 -0.04205,-0.789813 -0.402828,-1.714941 -1.204437,-2.735138 -2.687691,-3.387031 -8.537663,-8.585679 -12.502777,-11.155483 z" />
    <path
   id="path460-4"
   style="fill:#912391;fill-opacity:1;stroke-width:0.30418"
   d="m 66.937011,38.849901 c -3.386813,1.349788 -5.197505,2.73216 -8.378578,5.530809 6.006967,0.689858 11.197865,1.972212 15.176895,3.316696 -5.931869,2.346576 -13.033858,6.256451 -20.716177,12.931637 -8.105442,7.042823 -16.4455,17.992195 -17.610866,19.930969 16.07305,-16.321421 28.212511,-23.774601 46.981944,-28.32751 2.895466,-0.743155 6.018446,-2.115894 5.075594,-4.673647 -0.516406,-1.461883 -2.130428,-2.528654 -3.414934,-3.183167 -4.009534,-2.016153 -9.569961,-4.165294 -17.113878,-5.525787 z" />
    <path
   id="path460-4-8"
   style="fill:#912391;fill-opacity:1;stroke-width:0.30418"
   d="M 12.379279,59.237179 C 14.603555,14.124235 44.809538,33.879638 49.059403,34.161145 44.14267,37.909101 38.614936,43.450433 33.433134,51.787356 c -5.467215,8.796089 -9.885179,21.39349 -10.36918,23.545319 -2.336289,6.742475 5.021751,9.032436 7.622336,1.914027 2.51996,-6.400987 3.351749,-13.316241 8.990627,-22.102281 6.404319,-9.978713 14.686753,-16.440899 19.151747,-18.828141 2.531142,-1.444132 5.074887,-3.548892 3.337632,-5.760431 -0.9714,-1.26969 -2.8653,-1.883323 -4.309149,-2.185399 C 32.955919,24.278403 7.5825351,15.284345 12.379279,59.237179 Z" />
</svg>
