<?xml version="1.0" encoding="UTF-8" standalone="no"?>
<!-- Created with Inkscape (http://www.inkscape.org/) -->

<svg
   width="220"
   height="80"
   viewBox="0 0 220 80"
   version="1.1"
   id="svg5"
   xml:space="preserve"
   sodipodi:docname="main.svg"
   inkscape:export-filename="ic_launcher.png"
   inkscape:export-xdpi="16"
   inkscape:export-ydpi="16"
   inkscape:version="1.2.2 (732a01da63, 2022-12-09)"
   xmlns:inkscape="http://www.inkscape.org/namespaces/inkscape"
   xmlns:sodipodi="http://sodipodi.sourceforge.net/DTD/sodipodi-0.dtd"
   xmlns="http://www.w3.org/2000/svg"
   xmlns:svg="http://www.w3.org/2000/svg"><defs
   id="defs10" /><sodipodi:namedview
   id="namedview8"
   pagecolor="#ffffff"
   bordercolor="#000000"
   borderopacity="0.25"
   inkscape:showpageshadow="2"
   inkscape:pageopacity="0.0"
   inkscape:pagecheckerboard="0"
   inkscape:deskcolor="#d1d1d1"
   showgrid="false"
   inkscape:zoom="4"
   inkscape:cx="109.125"
   inkscape:cy="104.25"
   inkscape:window-width="1920"
   inkscape:window-height="1137"
   inkscape:window-x="1912"
   inkscape:window-y="-8"
   inkscape:window-maximized="1"
   inkscape:current-layer="text291"
   showguides="true"><sodipodi:guide
     position="56.122482,32.474314"
     orientation="1,0"
     id="guide9043"
     inkscape:locked="false" /><sodipodi:guide
     position="66.827927,25.012944"
     orientation="0,-1"
     id="guide9045"
     inkscape:locked="false" /><sodipodi:guide
     position="109,11"
     orientation="0,-1"
     id="guide563"
     inkscape:locked="false" /><sodipodi:guide
     position="173.5,2.5"
     orientation="0,-1"
     id="guide725"
     inkscape:locked="false" /></sodipodi:namedview>

    
    
    <path
   id="path460"
   style="fill:#912391;fill-opacity:1;stroke-width:0.146149"
   d="m 197.37354,44.488785 c -1.84137,0.129661 -2.40219,0.512757 -4.31405,1.330581 2.30107,1.444574 4.64295,3.831754 5.93822,5.279574 -2.79804,-0.06586 -6.37349,0.392602 -10.73477,2.088408 -4.58115,1.781291 -10.03334,5.413627 -10.87678,6.119868 12.14445,-6.638122 16.60328,-5.403724 24.06098,-4.252091 1.79722,0.298299 2.95389,-1.050189 2.64034,-2.211124 -0.0206,-0.475074 -0.19732,-1.031537 -0.58995,-1.645186 -1.31646,-2.037302 -4.18183,-5.164292 -6.12399,-6.71003 z" />
   <path
   id="path460-4"
   style="fill:#912391;fill-opacity:1;stroke-width:0.165106"
   d="m 189.9686,32.39428 c -1.6589,0.811899 -2.5458,1.643396 -4.10392,3.326785 2.94228,0.41495 5.48483,1.186287 7.4338,1.994994 -2.90549,1.411468 -6.38412,3.763259 -10.147,7.778387 -3.97012,4.236261 -8.05517,10.822315 -8.62598,11.988488 7.87275,-9.817344 13.81878,-14.300435 23.01224,-17.039011 1.41823,-0.447009 2.9479,-1.272712 2.48608,-2.811202 -0.25294,-0.879323 -1.04351,-1.520987 -1.67267,-1.914676 -1.96391,-1.212718 -4.68746,-2.505427 -8.38255,-3.323765 z" />
   <path
   id="path460-4-8"
   style="fill:#912391;fill-opacity:1;stroke-width:0.165106"
   d="m 163.24566,44.657239 c 1.08947,-27.13546 15.88467,-15.252574 17.9663,-15.083247 -2.40827,2.254397 -5.11581,5.587511 -7.65391,10.602174 -2.67789,5.290853 -4.84186,12.868197 -5.07892,14.162523 -1.14435,4.055602 2.4597,5.433014 3.73349,1.151288 1.23431,-3.850197 1.64172,-8.009726 4.4037,-13.294534 3.13691,-6.002202 7.19373,-9.889209 9.38072,-11.325137 1.23978,-0.868647 2.48574,-2.134661 1.63481,-3.464902 -0.4758,-0.76372 -1.40345,-1.13282 -2.11066,-1.314519 -12.19688,-2.461368 -24.62503,-7.871299 -22.27553,18.566354 z" />

<g
   aria-label="Fingram"
   id="text291"
   style="font-size:46.255px;stroke-width:3.85459;fill:#912391;fill-opacity:1"
   transform="translate(-76,-14)"><path
     d="m 152.99584,29.107222 c 2.16454,2.827007 0.47312,7.76585 -3.80418,10.684368 -1.6958,0.80208 -1.10591,-0.914405 -0.35873,-1.970371 0.99987,-1.869485 2.28411,-4.064332 -1.7e-4,-6.130076 -3.63933,-3.09518 -20.90186,5.192815 -33.2192,7.024726 -0.0966,6.27436 -0.36212,7.792351 -1.45427,13.740841 0.80019,0.108893 3.62786,0.09796 4.62106,0.04028 1.9674,-0.114261 3.2946,0.799044 0.27288,1.654781 L 113.58195,55.291 c -2.08689,7.209725 -4.38057,12.279464 -6.2854,15.215139 -1.94928,3.004184 -4.41342,5.310833 -6.05061,6.156223 -3.21446,1.679867 -6.581343,0.677889 -4.130593,-0.479557 10.652833,-5.185578 14.559883,-26.1749 13.355583,-35.847256 -1.0852,-6.168477 -5.46686,-6.215047 1.60217,-6.931805 10.11242,-0.352718 20.05126,-5.170304 29.3299,-7.285635 6.56759,-1.497271 9.6979,0.878555 11.59284,2.989113 z"
     style="font-style:italic;font-family:Georgia;-inkscape-font-specification:'Georgia Italic';stroke-width:5.05548;fill:#912391;fill-opacity:1"
     id="path434"
     sodipodi:nodetypes="ccccccsccsccccsc" /><path
     d="m 126.37348,68.945347 c -1.87643,-0.07813 -0.6861,-3.871166 -0.0853,-6.6135 0.66525,-2.815786 1.55385,-7.534168 3.34119,-7.456964 2.77132,0.04254 1.1262,4.838836 0.87701,7.44681 -0.29944,3.512154 -1.06531,6.472785 -4.13294,6.623654 z m 8.01673,-21.269152 c 0,0.858247 -0.27855,1.611096 -0.83566,2.258545 -0.55711,0.632393 -1.24973,0.948589 -2.07786,0.948589 -0.76791,0 -1.43041,-0.301139 -1.98752,-0.903418 -0.55711,-0.617335 -0.83566,-1.317484 -0.83566,-2.100447 0,-0.828133 0.27855,-1.550867 0.83566,-2.168203 0.55711,-0.617335 1.21961,-0.926003 1.98752,-0.926003 0.85825,0 1.55839,0.293611 2.10044,0.880832 0.54205,0.572165 0.81308,1.2422 0.81308,2.010105 z"
     style="font-style:italic;font-family:Georgia;-inkscape-font-specification:'Georgia Italic';fill:#912391;fill-opacity:1"
     id="path436"
     sodipodi:nodetypes="ccccccscssscscs" /><path
     d="m 155.62294,60.431751 c 1.318,-4.39181 1.66534,-8.661676 0.0451,-10.310289 -2.90336,-2.162177 -6.48176,0.108868 -8.40705,2.267498 l -3.20363,13.592092 c -0.42385,1.422955 -1.82954,3.035184 -3.41308,2.941434 -1.24623,0.09351 -1.32587,-0.53477 -1.09159,-1.717146 1.00743,-5.436166 2.51237,-11.131678 3.5536,-16.147945 0.7209,-2.665231 1.92336,-3.468163 3.41723,-3.615625 1.35163,-0.148046 1.13652,1.499145 1.16664,2.643474 h 0.13551 c 3.31215,-2.256662 8.49179,-5.948144 11.7896,-2.642497 2.66699,4.047381 0.39736,9.320122 -0.79928,13.892981 -1.43976,4.856729 -4.28675,10.551494 -6.0422,10.4918 -1.52802,-0.05196 0.754,-4.482569 2.84915,-11.395777 z"
     style="font-style:italic;font-family:Georgia;-inkscape-font-specification:'Georgia Italic';fill:#912391;fill-opacity:1"
     id="path438"
     sodipodi:nodetypes="ccccccccccccsc" /><path
     d="m 181.60444,65.477003 -0.15809,-0.04517 c -0.30114,0.240911 -0.73026,0.579693 -1.28737,1.016345 -1.8369,1.482714 -3.96577,2.362377 -6.16583,2.52957 -5.05676,-0.361646 -6.7871,-4.652414 -6.82081,-8.695398 -0.006,-4.598843 2.41014,-8.309922 5.65815,-10.827883 3.65455,-2.787605 8.57483,-4.449459 12.70382,-2.316849 l 4.13314,-1.061516 0.27102,0.338782 c -0.0582,4.747037 -2.54987,11.410947 -3.96786,15.42696 -7.02448,19.894718 -28.87338,26.327706 -46.43466,14.903983 -0.70147,-1.496542 -0.20142,-3.38363 0.99462,-4.142048 1.32141,-0.14965 2.11558,2.189586 5.81862,3.657131 10.87861,5.584985 32.76691,1.472142 35.25525,-10.783909 z m 3.02645,-14.432102 c 0,-0.421595 -0.0677,-0.850719 -0.20326,-1.287371 -0.12046,-0.451709 -0.35384,-0.865775 -0.70015,-1.242199 -11.18543,-1.086283 -16.41964,16.664063 -7.7694,17.978018 1.05399,0 2.10045,-0.301139 3.13938,-0.903418 1.03893,-0.617336 2.02516,-1.400298 2.95869,-2.348887 z"
     style="font-style:italic;font-family:Georgia;-inkscape-font-specification:'Georgia Italic';fill:#912391;fill-opacity:1"
     id="path440"
     sodipodi:nodetypes="cccccccccscccccccccccc" /><path
     d="m 224.4802,45.805075 c -10.27765,2.376013 -13.25582,16.636336 -8.31491,21.714303 3.65455,2.787605 7.63273,1.36475 11.76172,-2.39286 0.14556,0.5823 0.3862,1.211599 0.71203,1.789436 1.34401,1.495449 2.30887,2.412005 3.99025,1.921218 0.25216,-0.29507 0.22296,-1.00657 0.24342,-1.512368 -0.27606,-6.010366 1.2449,-13.154298 0.62705,-18.336279 -1.55876,-11.819885 -10.923,-15.723649 -18.80358,-17.535052 -10.43089,-2.234313 -20.49811,0.776289 -28.85313,6.211283 -0.70147,1.496542 -0.20142,3.38363 0.99462,4.142048 9.83785,-8.533336 22.30564,-9.955034 31.58545,-6.815671 5.41302,2.14718 11.25122,4.63362 12.54541,11.485635 -2.82209,-1.073129 -5.2999,-0.941879 -6.48833,-0.671693 z m 3.70248,17.44373 c -3.43577,3.465069 -6.88577,4.466422 -8.94919,1.494062 -2.04446,-4.283773 -0.60299,-11.966823 4.11798,-16.079895 3.69454,-2.670238 7.11053,-1.619671 7.39605,1.201369 -0.3986,4.38042 -1.00912,9.246238 -2.56484,13.384464 z"
     style="font-style:italic;font-size:46.255px;font-family:Georgia;-inkscape-font-specification:'Georgia Italic';fill:#912391;fill-opacity:1;stroke-width:3.85459"
     id="path440-3"
     sodipodi:nodetypes="cccccccccccccccccc" /><path
     d="m 204.5782,50.517049 c -0.73779,0.572165 -1.52829,1.332541 -2.37148,2.28113 l -3.63625,16.171182 h -4.2009 c 1.02263,-5.85221 2.84255,-12.205206 3.83953,-17.865091 0.54771,-2.705285 2.04919,-3.862018 3.68668,-3.618928 1.1548,0.05927 0.48603,1.14167 0.80576,1.695479 0.30638,0.530692 3.10706,-1.302181 4.22554,-2.074175 1.91073,-1.122189 4.6573,-1.188061 5.46568,-0.135513 3.4006,7.200978 -2.44932,0.336288 -7.81456,3.545916 z"
     style="font-style:italic;font-family:Georgia;-inkscape-font-specification:'Georgia Italic';fill:#912391;fill-opacity:1"
     id="path442"
     sodipodi:nodetypes="ccccccsccc" /></g></svg>
