<?xml version="1.0" encoding="UTF-8" standalone="no"?>
<!-- Created with Inkscape (http://www.inkscape.org/) -->

<svg
   width="220"
   height="80"
   viewBox="0 0 220 80"
   version="1.1"
   xmlns="http://www.w3.org/2000/svg"
   xmlns:svg="http://www.w3.org/2000/svg">

    <path
   id="path460"
   style="fill:#ffffff;fill-opacity:1;stroke-width:0.146149"
   d="m 197.37354,44.488785 c -1.84137,0.129661 -2.40219,0.512757 -4.31405,1.330581 2.30107,1.444574 4.64295,3.831754 5.93822,5.279574 -2.79804,-0.06586 -6.37349,0.392602 -10.73477,2.088408 -4.58115,1.781291 -10.03334,5.413627 -10.87678,6.119868 12.14445,-6.638122 16.60328,-5.403724 24.06098,-4.252091 1.79722,0.298299 2.95389,-1.050189 2.64034,-2.211124 -0.0206,-0.475074 -0.19732,-1.031537 -0.58995,-1.645186 -1.31646,-2.037302 -4.18183,-5.164292 -6.12399,-6.71003 z" />
   <path
   id="path460-4"
   style="fill:#ffffff;fill-opacity:1;stroke-width:0.165106"
   d="m 189.9686,32.39428 c -1.6589,0.811899 -2.5458,1.643396 -4.10392,3.326785 2.94228,0.41495 5.48483,1.186287 7.4338,1.994994 -2.90549,1.411468 -6.38412,3.763259 -10.147,7.778387 -3.97012,4.236261 -8.05517,10.822315 -8.62598,11.988488 7.87275,-9.817344 13.81878,-14.300435 23.01224,-17.039011 1.41823,-0.447009 2.9479,-1.272712 2.48608,-2.811202 -0.25294,-0.879323 -1.04351,-1.520987 -1.67267,-1.914676 -1.96391,-1.212718 -4.68746,-2.505427 -8.38255,-3.323765 z" />
   <path
   id="path460-4-8"
   style="fill:#ffffff;fill-opacity:1;stroke-width:0.165106"
   d="m 163.24566,44.657239 c 1.08947,-27.13546 15.88467,-15.252574 17.9663,-15.083247 -2.40827,2.254397 -5.11581,5.587511 -7.65391,10.602174 -2.67789,5.290853 -4.84186,12.868197 -5.07892,14.162523 -1.14435,4.055602 2.4597,5.433014 3.73349,1.151288 1.23431,-3.850197 1.64172,-8.009726 4.4037,-13.294534 3.13691,-6.002202 7.19373,-9.889209 9.38072,-11.325137 1.23978,-0.868647 2.48574,-2.134661 1.63481,-3.464902 -0.4758,-0.76372 -1.40345,-1.13282 -2.11066,-1.314519 -12.19688,-2.461368 -24.62503,-7.871299 -22.27553,18.566354 z" />

<g
   transform="translate(-76,-14)">
   <path
     d="m 152.99584,29.107222 c 2.16454,2.827007 0.47312,7.76585 -3.80418,10.684368 -1.6958,0.80208 -1.10591,-0.914405 -0.35873,-1.970371 0.99987,-1.869485 2.28411,-4.064332 -1.7e-4,-6.130076 -3.63933,-3.09518 -20.90186,5.192815 -33.2192,7.024726 -0.0966,6.27436 -0.36212,7.792351 -1.45427,13.740841 0.80019,0.108893 3.62786,0.09796 4.62106,0.04028 1.9674,-0.114261 3.2946,0.799044 0.27288,1.654781 L 113.58195,55.291 c -2.08689,7.209725 -4.38057,12.279464 -6.2854,15.215139 -1.94928,3.004184 -4.41342,5.310833 -6.05061,6.156223 -3.21446,1.679867 -6.581343,0.677889 -4.130593,-0.479557 10.652833,-5.185578 14.559883,-26.1749 13.355583,-35.847256 -1.0852,-6.168477 -5.46686,-6.215047 1.60217,-6.931805 10.11242,-0.352718 20.05126,-5.170304 29.3299,-7.285635 6.56759,-1.497271 9.6979,0.878555 11.59284,2.989113 z"
     style="font-style:italic;font-family:Georgia;-inkscape-font-specification:'Georgia Italic';fill:#ffffff;fill-opacity:1;stroke-width:5.05548"
     />
   <path
     d="m 126.37348,68.945347 c -1.87643,-0.07813 -0.6861,-3.871166 -0.0853,-6.6135 0.66525,-2.815786 1.55385,-7.534168 3.34119,-7.456964 2.77132,0.04254 1.1262,4.838836 0.87701,7.44681 -0.29944,3.512154 -1.06531,6.472785 -4.13294,6.623654 z m 8.01673,-21.269152 c 0,0.858247 -0.27855,1.611096 -0.83566,2.258545 -0.55711,0.632393 -1.24973,0.948589 -2.07786,0.948589 -0.76791,0 -1.43041,-0.301139 -1.98752,-0.903418 -0.55711,-0.617335 -0.83566,-1.317484 -0.83566,-2.100447 0,-0.828133 0.27855,-1.550867 0.83566,-2.168203 0.55711,-0.617335 1.21961,-0.926003 1.98752,-0.926003 0.85825,0 1.55839,0.293611 2.10044,0.880832 0.54205,0.572165 0.81308,1.2422 0.81308,2.010105 z"
     style="font-style:italic;font-family:Georgia;-inkscape-font-specification:'Georgia Italic';fill:#ffffff;fill-opacity:1"
      />
   <path
     d="m 156.59521,57.868489 c 1.318,-4.39181 0.69307,-6.098414 -0.92717,-7.747027 -2.90336,-2.162177 -6.48176,0.108868 -8.40705,2.267498 l -3.11524,13.680481 c -0.42385,1.422955 -1.82954,3.035184 -3.41308,2.941434 -1.24623,0.09351 -1.32587,-0.53477 -1.09159,-1.717146 1.00743,-5.436166 2.42398,-11.220067 3.46521,-16.236334 0.7209,-2.665231 1.92336,-3.468163 3.41723,-3.615625 1.35163,-0.148046 1.13652,1.499145 1.16664,2.643474 h 0.13551 c 3.31215,-2.256662 8.49179,-5.948144 11.7896,-2.642497 2.66699,4.047381 1.36963,6.75686 0.17299,11.329719 -1.43976,4.856729 -3.40288,10.286329 -5.15833,10.226635 -1.52802,-0.05196 -0.12989,-4.217404 1.96528,-11.130612 z"
     style="font-style:italic;font-family:Georgia;-inkscape-font-specification:'Georgia Italic';fill:#ffffff;fill-opacity:1"
      />
   <path
     style="font-style:italic;font-family:Georgia;-inkscape-font-specification:'Georgia Italic';fill:#ffffff;fill-opacity:1"
     d="m 189.66797,46.076172 -4.13281,1.060547 c -4.12899,-2.132608 -9.05054,-0.469243 -12.70508,2.318359 -3.24801,2.517959 -5.6642,6.229287 -5.6582,10.828125 0.0337,4.04298 1.76355,8.333667 6.82031,8.695313 2.20006,-0.167193 4.32911,-1.048538 6.16601,-2.53125 0.55711,-0.436652 0.98793,-0.774715 1.28907,-1.015625 -0.51517,2.133054 -2.33963,5.187702 -5.11719,6.880859 -6.64742,-0.590526 -12.6956,-1.308487 -18.65235,-1.865234 -0.0946,0.419457 -0.31021,0.814471 -0.6289,1.152343 6.23448,0.498363 12.71283,1.368687 19.85937,2.552735 3.8782,-2.102317 6.13525,-6.738511 9.0625,-12.310547 1.41799,-4.016011 3.9086,-10.680702 3.9668,-15.427735 z m -6.9707,2.390625 c 0.33767,-0.0018 0.67975,0.01488 1.02929,0.04883 0.34631,0.376424 0.58071,0.790479 0.70117,1.242187 0.13556,0.436652 0.20313,0.865515 0.20313,1.28711 l -2.57422,12.195312 c -0.93353,0.948588 -1.92005,1.732274 -2.95898,2.34961 -1.03893,0.602278 -2.08469,0.904297 -3.13868,0.904297 -8.37991,-1.272893 -3.72976,-17.972552 6.73829,-18.027344 z m -38.24024,21.136719 c -0.14568,0.583719 -0.49624,1.116703 -1.00586,1.529296 2.74803,-0.03822 5.48356,0.0077 8.24219,0.132813 -0.29195,-0.393247 -0.45537,-0.841146 -0.47461,-1.300781 0.004,-0.015 0.008,-0.02998 0.0117,-0.04492 -2.23689,-0.149043 -4.48587,-0.261203 -6.77344,-0.316406 z m -6.70898,0.0098 c -2.36055,0.06396 -4.78526,0.19922 -7.29688,0.416016 -0.019,0.745133 -0.36332,1.460108 -0.9707,2.015625 3.24917,-0.373098 6.40236,-0.630915 9.50976,-0.777344 -0.62384,-0.416459 -1.06184,-0.999767 -1.24218,-1.654297 z m -14.71485,1.269531 c -4.73522,0.684468 -6.1046,0.877244 -10.56565,1.897827 -1.37282,1.11197 -1.74034,2.15963 -0.55273,2.109374 5.35687,-1.206045 7.35866,-1.43339 12.83518,-2.227904 -0.82389,-0.396441 -1.43587,-1.031419 -1.71484,-1.779297 -6.5e-4,9.4e-5 -0.001,-9.3e-5 -0.002,0 z"
      />
   <path
     style="font-style:italic;font-size:46.255px;font-family:Georgia;-inkscape-font-specification:'Georgia Italic';fill:#ffffff;fill-opacity:1;stroke-width:3.85459"
     d="m 232.09121,47.02774 c -4.12899,-2.132608 -9.05054,-0.469243 -12.70508,2.318359 -3.24801,2.517959 -5.6642,6.229287 -5.6582,10.828125 0.0337,4.04298 1.85194,8.863997 6.82031,8.695313 5.60516,-0.117006 10.48112,-5.462474 12.68632,-10.413805 1.801,-4.14721 2.14429,-8.90647 -1.14335,-11.427992 z m -1.55728,7.885898 c -0.91018,5.128366 -4.51676,11.41901 -8.51576,11.664388 -9.03382,-0.22541 -3.77241,-16.255956 5.4389,-18.043666 3.79027,-0.553275 3.50117,3.859569 3.07686,6.379278 z"
      />
   <path
     d="m 204.5782,50.427426 c -0.73779,0.574944 -1.52829,1.339014 -2.37148,2.29221 l -3.63625,16.249725 h -4.2009 c 1.02263,-5.880634 2.84255,-12.264486 3.83953,-17.951861 0.54771,-2.718425 2.04919,-3.880776 3.68668,-3.636506 1.1548,0.05956 0.48603,1.147216 0.80576,1.703714 0.30638,0.53327 3.10706,-1.308505 4.22554,-2.084249 1.91073,-1.127639 4.6573,-1.193831 5.46568,-0.136171 3.4006,7.235953 -2.44932,0.337921 -7.81456,3.563138 z"
     style="font-style:italic;font-family:Georgia;-inkscape-font-specification:'Georgia Italic';fill:#ffffff;fill-opacity:1;stroke-width:3.86394"
     />
   </g>
</svg>
