<?xml version="1.0" encoding="UTF-8" standalone="no"?>
<!-- Created with Inkscape (http://www.inkscape.org/) -->

<svg
   width="108"
   height="108"
   viewBox="0 0 108 108"
   version="1.1"
   id="svg5"
   xml:space="preserve"
   sodipodi:docname="logo.svg"
   inkscape:export-filename="ic_launcher.png"
   inkscape:export-xdpi="16"
   inkscape:export-ydpi="16"
   inkscape:version="1.2.2 (732a01da63, 2022-12-09)"
   xmlns:inkscape="http://www.inkscape.org/namespaces/inkscape"
   xmlns:sodipodi="http://sodipodi.sourceforge.net/DTD/sodipodi-0.dtd"
   xmlns="http://www.w3.org/2000/svg"
   xmlns:svg="http://www.w3.org/2000/svg"><defs
   id="defs10" /><sodipodi:namedview
   id="namedview8"
   pagecolor="#ffffff"
   bordercolor="#000000"
   borderopacity="0.25"
   inkscape:showpageshadow="2"
   inkscape:pageopacity="0.0"
   inkscape:pagecheckerboard="0"
   inkscape:deskcolor="#d1d1d1"
   showgrid="false"
   inkscape:zoom="6.1650872"
   inkscape:cx="89.212038"
   inkscape:cy="65.20589"
   inkscape:window-width="1920"
   inkscape:window-height="1017"
   inkscape:window-x="-8"
   inkscape:window-y="-8"
   inkscape:window-maximized="1"
   inkscape:current-layer="svg5"
   showguides="true"><sodipodi:guide
     position="56.122482,60.474314"
     orientation="1,0"
     id="guide9043"
     inkscape:locked="false" /><sodipodi:guide
     position="66.827927,53.012944"
     orientation="0,-1"
     id="guide9045"
     inkscape:locked="false" /></sodipodi:namedview>

    
    
    <path
   id="path460"
   style="fill:#ffffff;fill-opacity:1;stroke-width:0.195993"
   d="m 73.750613,58.478541 c -2.567971,0.167206 -3.350087,0.661233 -6.016366,1.715869 3.209069,1.862872 6.475052,4.941294 8.281425,6.808351 -3.902146,-0.08493 -8.888456,0.506286 -14.970683,2.693137 -6.388849,2.29709 -13.992465,6.981221 -15.168726,7.891964 16.936625,-8.560286 23.154901,-6.96845 33.555389,-5.483345 2.506391,0.384676 4.119477,-1.354287 3.682199,-2.851387 -0.02871,-0.612638 -0.275171,-1.330234 -0.822739,-2.121574 -1.83593,-2.627231 -5.831976,-6.659686 -8.540499,-8.653015 z" />
   <path
   id="path460-4"
   style="fill:#ffffff;fill-opacity:1;stroke-width:0.221416"
   d="m 63.423697,42.881898 c -2.313492,1.046995 -3.550354,2.119265 -5.723307,4.290103 4.103287,0.535105 7.649128,1.529793 10.367155,2.572673 -4.051988,1.820179 -8.903273,4.852965 -14.150973,10.030732 -5.536731,5.462931 -11.233725,13.956072 -12.029773,15.459927 10.979309,-12.660097 19.27163,-18.441332 32.092806,-21.972903 1.977858,-0.576446 4.11113,-1.641244 3.467076,-3.625225 -0.35275,-1.133944 -1.455268,-1.961411 -2.332699,-2.469099 -2.738865,-1.563877 -6.537127,-3.230909 -11.690285,-4.286208 z" />
   <path
   id="path460-4-8"
   style="fill:#ffffff;fill-opacity:1;stroke-width:0.221416"
   d="m 26.15596,58.695773 c 1.519376,-34.992924 22.152723,-19.669177 25.055755,-19.450819 -3.358562,2.90719 -7.134491,7.205456 -10.674117,13.672187 -3.73459,6.822896 -6.752448,16.594368 -7.083063,18.263485 -1.595892,5.22996 3.430297,7.006222 5.206725,1.484661 1.721356,-4.965078 2.28954,-10.329058 6.141391,-17.144159 4.374714,-7.740225 10.032346,-12.752772 13.08233,-14.604493 1.728993,-1.120176 3.466595,-2.752783 2.279897,-4.468215 C 59.501326,35.463554 58.207625,34.987576 57.221349,34.753264 40.211618,31.579171 22.879361,24.602716 26.15596,58.695773 Z" />

</svg>
